<svg xmlns="http://www.w3.org/2000/svg" fill="none" viewBox="0 0 128 128">
  <path fill="#403728" fill-rule="evenodd" d="M81.59 4.83c-.4.1-.82.16-1.25.17-1.34-.2-2.67-.32-4-.33L74.18 5a6.64 6.64 0 0 0-1.92-.33c-2.33.18-4.64.18-6.9 0-1.83.12-3.66.23-5.5.33a4.46 4.46 0 0 1-1.58-.33c.49-.11.99-.2 1.5-.25 4.14-.05 8.27-.19 12.4-.42 2.48.05 4.95.19 7.41.42.71.03 1.38.17 2 .41Z" clip-rule="evenodd"/>
  <path fill="#403728" fill-rule="evenodd" d="M58.28 4.67c.49.2 1.01.31 1.58.33 1.84-.1 3.67-.2 5.5-.33 2.26.18 4.57.18 6.9 0 .67.01 1.3.13 1.92.33l2.16-.33c1.33.01 2.66.12 4 .33.43-.01.85-.07 1.25-.17a44.85 44.85 0 0 1 24.64 11.07 32.25 32.25 0 0 1 8.16 12.9 34.7 34.7 0 0 1 1.08 12.33l-.41 8a84.24 84.24 0 0 0-.25 5.32 11.41 11.41 0 0 1-2.34 5.83 5.53 5.53 0 0 1-4.74 1.83c.49 2.31.9 4.64 1.25 7 .26 2.97.03 5.91-.67 8.82a968.46 968.46 0 0 1-3.58 9.65c-.47 1.11-.83 2.28-1.08 3.5a66.92 66.92 0 0 1-3.16 16.65c-2.37 5.37-6.34 9-11.9 10.9l-13 4.5a37.28 37.28 0 0 1-18.98.83 31.44 31.44 0 0 1-11.15-5.33 44.04 44.04 0 0 1-12.74-17.06 110.3 110.3 0 0 1-2.58-7.16c-.11-1.77-.2-3.55-.25-5.33a10.16 10.16 0 0 0-1.66-3.5 49.53 49.53 0 0 1-3.75-4.66 9.16 9.16 0 0 1-1.42-5.83c.48-.91 1.23-1.22 2.25-.91.53.2.9.55 1.08 1.08 0 1.4.4 2.67 1.17 3.83a59.86 59.86 0 0 0 3.66 4.66c2.02 2.83 2.8 6 2.33 9.5a44.13 44.13 0 0 0 10.74 19.47 42.9 42.9 0 0 1 3.83 3.58 28.72 28.72 0 0 0 22.15 4.5l5.33-1.33c4.3-1.62 8.63-3.18 12.98-4.66a15.86 15.86 0 0 0 9.58-11.08l.83-3.66c.44-3.67.94-7.33 1.5-10.99a101.9 101.9 0 0 1 4-10.66c1.1-3.48 1.38-7.03.83-10.65-.85-3.78-1.74-7.55-2.67-11.32-1.12-6.27-2.23-12.54-3.33-18.82a24.9 24.9 0 0 0-3-7.32c-3.1-3.5-6.68-4.09-10.73-1.75a114.7 114.7 0 0 0-8.33 6.33 23.07 23.07 0 0 1-16.65 4.99 18.06 18.06 0 0 1-3-.67 324 324 0 0 1-8.82-4.32 9.1 9.1 0 0 0-3.83-.84 29.47 29.47 0 0 0-11.4 10.74 28.24 28.24 0 0 0-2.67 8c.02 4.18-.54 8.29-1.66 12.31-2.2 5.25-5.66 6.33-10.41 3.25a12.82 12.82 0 0 1-4.33-7.57c-.2-4.33-.48-8.66-.83-13a44.19 44.19 0 0 1 6.57-18.14c8.93-13.97 21.61-22.3 38.05-24.97Z" clip-rule="evenodd"/>
  <path fill="#C8B097" fill-rule="evenodd" d="M28.97 91.75a20.23 20.23 0 0 1-9.65 1.24 16.01 16.01 0 0 1-6.58-4.57 43.86 43.86 0 0 1-3.83-5.17 96.67 96.67 0 0 1-4.83-20.3 22.06 22.06 0 0 1 0-3.84 2.93 2.93 0 0 1 2.75-2.33c2.88.69 5.33 2.1 7.33 4.25.22.08.33 0 .33-.25.56 3.03 2 5.56 4.33 7.57 4.75 3.08 8.21 2 10.4-3.24a44.76 44.76 0 0 0 1.67-12.33c.49-2.8 1.38-5.46 2.66-7.99a29.47 29.47 0 0 1 11.4-10.74c1.34 0 2.61.28 3.84.84 2.92 1.48 5.86 2.93 8.82 4.32.98.31 1.98.53 3 .67 6.23.5 11.78-1.17 16.65-5 2.68-2.23 5.45-4.34 8.32-6.32 4.06-2.34 7.64-1.75 10.74 1.75a24.9 24.9 0 0 1 3 7.32c1.1 6.28 2.2 12.56 3.33 18.82.93 3.77 1.82 7.54 2.66 11.32.56 3.62.28 7.17-.83 10.66a102.34 102.34 0 0 0-4 10.65c-.55 3.66-1.05 7.32-1.5 10.99l-.83 3.66a15.86 15.86 0 0 1-9.57 11.08 452.96 452.96 0 0 0-12.99 4.66l-5.32 1.33a28.72 28.72 0 0 1-22.15-4.5 42.88 42.88 0 0 0-3.83-3.58 44.14 44.14 0 0 1-10.74-19.48c.47-3.5-.3-6.66-2.33-9.49a59.84 59.84 0 0 1-3.66-4.66 6.76 6.76 0 0 1-1.17-3.83c-.19-.53-.55-.89-1.08-1.08-1.02-.3-1.77 0-2.25.92a9.16 9.16 0 0 0 1.42 5.82 49.52 49.52 0 0 0 3.75 4.66 10.16 10.16 0 0 1 1.66 3.5c.03.89.42 2.67-.92 2.67Z" clip-rule="evenodd"/>
  <path fill="#413728" fill-rule="evenodd" d="M85.92 44.8c1.94-.04 3.89.04 5.83.24.73.17 1.45.4 2.16.67.91.69 1.77 1.44 2.58 2.25a37.7 37.7 0 0 1 1.83 2.83c.74 2.07.07 3.4-2 4-2.55-.8-5.13-1.49-7.74-2.09a20.19 20.19 0 0 0-3.66 0 27.18 27.18 0 0 0-7 4.16 8.79 8.79 0 0 1-5.66 1.5c-1.3-.91-1.5-2.05-.58-3.41l4.33-5.33 2.17-2a2.83 2.83 0 0 1 2.41-2.25c1.8-.14 3.58-.33 5.33-.58ZM49.29 50.29c5.46-.62 10.28.8 14.48 4.24 1.44 1.4 1.7 2.98.75 4.75-.45.4-.97.62-1.58.66a43.11 43.11 0 0 0-9.66-2.24c-1-.12-2-.12-3 0a74.87 74.87 0 0 0-8.32 4.5 4.24 4.24 0 0 1-3.16.16c-.75-.65-1-1.45-.75-2.42.26-.58.57-1.13.91-1.66-.2-.5-.17-1 .09-1.5a10.87 10.87 0 0 1 5.9-5.41c1.45-.46 2.9-.82 4.34-1.08Z" clip-rule="evenodd"/>
  <path fill="#F5EBEB" fill-rule="evenodd" d="M86.58 55.95c4.35-.4 7.98 1 10.9 4.16a9.97 9.97 0 0 1 1.17 10.32c-2.4 4.62-6.2 6.42-11.4 5.41A12.16 12.16 0 0 1 78 67.77a8.7 8.7 0 0 1 1.66-7.66 11.07 11.07 0 0 1 6.91-4.16Z" clip-rule="evenodd"/>
  <path fill="#403729" fill-rule="evenodd" d="M91.58 60.11c4.57-.18 6.76 1.99 6.58 6.5a6.72 6.72 0 0 1-5.58 5.4c-2.59.5-4.78-.2-6.58-2.08-1.26-3.02-.74-5.71 1.58-8.07 1.26-.8 2.59-1.38 4-1.75Z" clip-rule="evenodd"/>
  <path fill="#F5EAEB" fill-rule="evenodd" d="M49.95 62.44c4.06-.56 7.42.66 10.08 3.66a8.28 8.28 0 0 1 .16 7.83c-2.65 5.17-6.84 7.14-12.57 5.91a11.16 11.16 0 0 1-6.82-4.25 6.42 6.42 0 0 1 .08-6.99 51.93 51.93 0 0 0 3.41-3.58 16.6 16.6 0 0 1 2.67-1.66c.98-.4 1.98-.7 3-.92Z" clip-rule="evenodd"/>
  <path fill="#403728" fill-rule="evenodd" d="M48.12 64.44c3.06-.43 5.36.68 6.91 3.33.65 2.1.12 3.85-1.58 5.24a11.1 11.1 0 0 1-10.16 1.83c-1.8-1.03-2.44-2.55-1.91-4.57 1.56-2.76 3.8-4.7 6.74-5.83Z" clip-rule="evenodd"/>
  <path fill="#C7B097" fill-rule="evenodd" d="M104.73 87.58c1.2-3.2 2.4-6.42 3.58-9.65.7-2.9.92-5.85.67-8.83-.35-2.35-.76-4.68-1.25-7a5.52 5.52 0 0 0 4.74-1.82 11.4 11.4 0 0 0 2.33-5.83c.03-1.8.12-3.58.25-5.33-.02 1.17 0 2.33.09 3.5.39-.26.75-.53 1.08-.84 1.7-1 3.42-1.97 5.16-2.9 1.33-.25 2.2.28 2.58 1.57a11.9 11.9 0 0 1-.17 3.17 146.75 146.75 0 0 0-3 15.48 45.04 45.04 0 0 1-3.32 10.49 33.17 33.17 0 0 1-4.25 5.41 9.36 9.36 0 0 1-8.49 2.58Z" clip-rule="evenodd"/>
  <path fill="#423728" fill-rule="evenodd" d="M117.22 58.11c1.79-.02 2.48.82 2.08 2.5a21.78 21.78 0 0 0-2.66 3.66l-3.5 8.16c-1.17 1-2.16.88-3-.33-.1-.5-.1-1 0-1.5 1.2-3.11 2.53-6.16 4-9.16.5-.56.95-1.17 1.33-1.83.52-.6 1.1-1.1 1.75-1.5ZM9.16 64.94c.77-.08 1.44.14 2 .66a27.41 27.41 0 0 0 4.08 5c1.78 2.2 3.53 4.42 5.24 6.66.52.75.99 1.53 1.42 2.33.37 1.5-.22 2.32-1.75 2.5-.33 0-.6-.1-.83-.34-3.37-4.56-6.9-9-10.58-13.32A6.56 6.56 0 0 1 8 66.6a1.9 1.9 0 0 1 1.16-1.66ZM70.77 76.76c3.02-.42 5.85.1 8.49 1.58 2.85 2.23 3.27 4.87 1.25 7.91a13.66 13.66 0 0 1-10.33 4.66c-1.58-.15-3.16-.28-4.74-.41-2-.36-2.8-1.5-2.42-3.42.94-1.08 1.9-1.1 2.92-.08 3.75.97 7.25.42 10.49-1.67.9-.69 1.5-1.58 1.83-2.66a3.08 3.08 0 0 0-2-1.83l-1.67-.5c-2-.02-4-.02-5.99 0-1.41-1.26-1.3-2.37.33-3.33a9.92 9.92 0 0 0 1.84-.25Z" clip-rule="evenodd"/>
  <path fill="#413728" fill-rule="evenodd" d="M83.25 93.08c.93-.18 1.68.1 2.25.83.25.9.78 1.56 1.58 2 .48.73.76 1.53.83 2.41.07.88-.32 1.43-1.16 1.67-.52.13-1.02.07-1.5-.17a62.77 62.77 0 0 1-1.83-2.25 6.22 6.22 0 0 0-2.17 1.75c.85 3.21 1.54 6.46 2.09 9.74.1 1.22.1 2.44 0 3.66-.55.94-1.35 1.24-2.42.92a12.1 12.1 0 0 1-4.83-4.91 58.17 58.17 0 0 1-4.5-4.58c-.94-.06-1.88-.04-2.82.08a138.2 138.2 0 0 1-5.41 11.49c-1.06 1.26-2.17 1.31-3.33.17a8.35 8.35 0 0 1-.84-2.83c-.26-2.41-.65-4.8-1.16-7.16-.1-1.17-.08-2.34.08-3.5-1.3-.22-2.57-.52-3.83-.92-.86-.68-1.8-1.23-2.83-1.66-.81-.9-.87-1.84-.16-2.83.5-.36 1.06-.47 1.66-.33 1.89.91 3.83 1.69 5.83 2.33 8.85.74 17-1.23 24.47-5.91Z" clip-rule="evenodd"/>
  <path fill="#F1E7E5" fill-rule="evenodd" d="M77.6 100.74h.66c.23 1.86.5 3.72.83 5.57l-.17.25c-1.27-1.19-2.52-2.4-3.74-3.66-.13-.43-.1-.85.08-1.25.8-.3 1.58-.6 2.33-.91Z" clip-rule="evenodd"/>
  <path fill="#F2E7E6" fill-rule="evenodd" d="M62.44 103.07h3c-.2.68-.45 1.34-.75 2-.81 1.48-1.59 2.98-2.33 4.49-.36-1.98-.6-3.98-.75-6 .46.1.74-.06.83-.5Z" clip-rule="evenodd"/>
</svg>
